<?xml version="1.0" encoding="utf-8"?>
<!-- Generator: Adobe Illustrator 16.0.0, SVG Export Plug-In . SVG Version: 6.00 Build 0)  -->
<!DOCTYPE svg PUBLIC "-//W3C//DTD SVG 1.1//EN" "http://www.w3.org/Graphics/SVG/1.1/DTD/svg11.dtd">
<svg version="1.1" id="Layer_1" xmlns="http://www.w3.org/2000/svg" xmlns:xlink="http://www.w3.org/1999/xlink" x="0px" y="0px"
	 width="841.89px" height="186.667px" viewBox="0 0 841.89 186.667" enable-background="new 0 0 841.89 186.667"
	 xml:space="preserve">
<path fill="none" d="M48.072,87.148c0.003,0,0.006,0,0.006,0l0.003-27.016C48.039,68.649,48.072,77.17,48.072,87.148z"/>
<g>
	<g>
		<path fill="#252461" d="M183.197,22.416c-0.165-5.006-6.287-3-8.117-2.447l-16.401,5.355c-3.479,1.246-7.116,3.186-7.116,7.118
			c0,0-0.059,116.896,0.017,140.317c0.032,11.212,1.94,13.05,12.798,13.099c1.716,0.008,3.428,0,5.145-0.006
			c11.911-0.05,13.666-1.874,13.666-14.086C183.185,146.616,183.197,22.416,183.197,22.416z"/>
		<path fill="#252461" d="M436.592,105.074c-3.796-33.659-29.72-44.723-57.757-41.488c-7.719,0.889-15.141,4.29-22.777,6.562
			c-0.139-0.254-0.618-0.722-0.619-1.204c-0.034-4.138-0.035-8.271-0.058-12.407l-0.136,0.015V22.416
			c-0.167-5.006-6.292-3-8.12-2.447l-16.4,5.355c-3.477,1.246-7.118,3.186-7.118,7.118c0,0,0.021,112.728,0.081,137.142
			c0.02,6.715,3.331,12.011,10.346,12.633c17.051,1.52,34.207,3.739,51.236,3.158c28.04-0.964,46.2-15.827,50.554-41.21
			C438.008,131.44,438.044,117.946,436.592,105.074z M407.529,123.602c-0.043,2.841-0.226,5.697-0.623,8.506
			c-4.167,29.754-22.55,31.532-46.346,26.114c-2.295-0.518-4.804-5.379-5.079-8.422c-0.708-7.911,0.024-38.722-0.267-46.118
			c-0.252-6.349,2.184-10.189,8.46-11.832C393.085,84.16,408.063,91.072,407.529,123.602z"/>
		<path fill="#252461" d="M831.059,104.838c-0.258-21.279-10.859-36.23-27.935-40.258c-15.568-3.666-30.023-1.095-43.421,7.54
			c-3.279,2.106-6.407,4.452-10.057,7.01c-8.382-13.222-20.801-16.954-34.992-16.146c-12.298,0.702-22.86,5.746-32.504,13.872
			V66.155c-0.166-5.006-6.29-3-8.117-2.447l-16.402,5.355c-3.477,1.245-7.115,3.187-7.115,7.117c0,0,0,80.785,0,89.254
			c0,20.768,0.329,20.911,21.046,20.516c7.305-0.141,10.499-3.425,10.514-10.372c0.032-11.635,0.075-56.812,0.075-56.812
			c0.088-2.487,0.235-4.97,0.501-7.438c1.489-13.831,13.616-24.019,26.315-23.067c10.978,0.824,15.265,7.601,15.281,24.268
			c0.017,18.006,0.01,36.007,0.011,54.004c0,19.516,0.01,19.17,19.236,19.491c8.571,0.144,11.946-3.004,11.836-11.428
			c-0.235-18.282-0.261-36.575,0.073-54.855c0.096-5.318,0.87-10.927,2.761-15.848c4.381-11.429,17.123-17.833,28.527-15.217
			c9.753,2.24,13.086,8.002,13.09,22.669c0.005,20.287-0.021,40.574,0.011,60.858c0.019,11.585,2.021,13.605,13.234,13.648
			c1.427,0.001,2.855,0.014,4.284,0.018c12.37,0.019,13.994-1.469,13.988-13.556C831.292,149.819,831.325,127.331,831.059,104.838z"
			/>
		<path fill="#252461" d="M133.703,158.609c0,0-70.778,0.146-73.661,0.167c-6.625,0.052-11.696-2.008-12.013-9.127
			c-0.498-11.044,0.009-81,0.052-89.516c0.064-12.076,2.664-14.74,14.497-14.768c2.719-0.006,5.441,0,8.161-0.003
			c0.02,0.003,54.451,0.007,54.451,0.007c3.352,0,5.008-3.102,6.068-6.066l4.563-13.98c0.473-1.558,2.182-6.777-2.084-6.921
			c0,0-63.17,0.031-63.285,0.037c-8.093,0.043-16.182,0.148-24.27,0.38c-16.99,0.49-28.653,12.502-28.831,29.104
			c-0.388,35.999-0.402,72.015-0.008,108.019c0.192,17.861,12.913,29.769,30.809,29.875c7.15,0.041,76.898,0.093,76.898,0.093
			c3.392,0,5.067-3.143,6.142-6.142l4.624-14.152C136.29,164.036,138.021,158.752,133.703,158.609z"/>
		<path fill="#252461" d="M307.591,98.762c-0.949-18.094-11.192-28.222-28.834-32.768c-8.336-2.153-19.231-3.05-29.354-2.338
			c0,0-4.905,0.376-7.292,0.824c-3.799,0.607-7.342,1.483-10.427,2.65c-6.136,2.031-11.312,4.746-14.424,8.148
			c-2.017,2.204-2.653,3.722-3.894,6.703c-1.255,3.083-2.375,6.404-3.272,9.566l-0.008-0.011c0,0-0.169,0.631-0.383,1.456
			c-0.102,0.391-0.221,0.792-0.315,1.173l0.012,0.012c-0.233,0.911-0.458,1.822-0.558,2.301c0,0-0.783,4.496,1.921,2.955
			l3.797-2.151c3.007-1.673,6.612-3.598,9.862-5.169c9.73-4.696,28.015-4.803,28.015-4.803c1.641,0.094,3.423,0.205,5.462,0.329
			c15.318,0.949,21.531,9.404,17.282,24.901c-3.305-0.347-6.7-1.169-10.047-0.985c-13.606,0.746-27.542,0.223-40.702,3.121
			c-18.663,4.105-26.264,16.796-25.456,37.051c0.69,17.242,10.839,28.64,28.592,32.491c18.144,3.939,35.091,0.867,51.834-9.182
			c1.518,12.939,10.671,10.777,18.896,10.878c6.428,0.078,10.031-3.207,10.048-9.153
			C308.416,150.756,308.943,124.708,307.591,98.762z M267.669,158.775c-8.184,2.511-17.127,3.535-25.716,3.463
			c-8.082-0.078-11.679-6.292-12.009-14.05c-0.342-8.016,3.723-13.12,11.374-14.829c4.686-1.049,14.451-1.033,14.472-0.798
			c2.282,0,4.583-0.203,6.844,0.042c5.462,0.595,12.044-0.679,13.882,6.983C278.898,149.494,276.639,156.012,267.669,158.775z"/>
		<path fill="#252461" d="M634.495,98.762c-0.947-18.094-11.192-28.222-28.832-32.768c-8.338-2.153-19.233-3.05-29.354-2.338
			c0,0-4.907,0.376-7.293,0.824c-3.798,0.607-7.342,1.483-10.427,2.65c-6.137,2.031-11.311,4.746-14.424,8.148
			c-2.019,2.204-2.653,3.722-3.893,6.703c-1.257,3.083-2.377,6.404-3.275,9.566l-0.007-0.011c0,0-0.157,0.595-0.361,1.377
			c-0.111,0.417-0.235,0.846-0.339,1.251l0.013,0.012c-0.23,0.911-0.456,1.822-0.556,2.301c0,0-0.784,4.496,1.921,2.955l3.754-2.126
			c3.014-1.676,6.638-3.617,9.906-5.194c9.729-4.696,28.015-4.803,28.015-4.803c1.639,0.094,3.422,0.205,5.46,0.329
			c15.318,0.949,21.533,9.404,17.284,24.901c-3.307-0.347-6.699-1.169-10.049-0.985c-13.607,0.746-27.54,0.223-40.7,3.121
			c-18.663,4.105-26.266,16.796-25.457,37.051c0.689,17.242,10.839,28.64,28.591,32.491c18.145,3.939,35.094,0.867,51.833-9.182
			c1.521,12.939,10.674,10.777,18.899,10.878c6.426,0.078,10.032-3.207,10.048-9.153
			C635.322,150.756,635.851,124.708,634.495,98.762z M594.573,158.775c-8.183,2.511-17.126,3.535-25.714,3.463
			c-8.082-0.078-11.679-6.292-12.009-14.05c-0.345-8.016,3.725-13.12,11.371-14.829c4.689-1.049,14.453-1.033,14.474-0.798
			c2.28,0,4.582-0.203,6.844,0.042c5.464,0.595,12.044-0.679,13.884,6.983C605.803,149.494,603.545,156.012,594.573,158.775z"/>
		<path fill="#252461" d="M523.01,65.507c-29.068,7.374-34.37,12.606-41.906,20.186c-0.049-0.149-0.091-0.287-0.138-0.434V65.929
			c-0.149-4.475-5.622-2.682-7.258-2.188l-14.656,4.788c-3.11,1.111-6.362,2.847-6.362,6.359c0,0,0.049,99.105,0.055,101.576
			c0.016,6.138,3.197,9.536,9.568,9.523c3.14-0.006,6.278,0.017,9.424-0.002c10.459-0.07,12.28-1.87,12.316-12.599
			c0.006-1.445-0.069-48.527-0.069-48.527c0.688-8.723,4.264-20.501,19.755-28.735c9.666-5.52,17.819-4.587,20.218-12.781
			l2.605-10.494C527.686,70.013,529.104,63.674,523.01,65.507z"/>
	</g>
	<linearGradient id="SVGID_1_" gradientUnits="userSpaceOnUse" x1="758.3174" y1="67.0142" x2="789.5173" y2="-18.7071">
		<stop  offset="0.2527" style="stop-color:#F15A29"/>
		<stop  offset="0.3361" style="stop-color:#F37123"/>
		<stop  offset="0.6022" style="stop-color:#F9B610"/>
		<stop  offset="0.7946" style="stop-color:#FDE104"/>
		<stop  offset="0.8925" style="stop-color:#FFF100"/>
	</linearGradient>
	<path fill="url(#SVGID_1_)" d="M840.914,0l-11.292,3.686l-20.019,6.215l-78.795,24.463h-0.002l-25.103,7.793
		c-1.826,0.567-2.883,1.999-2.523,3.439c0.354,1.425,2.019,2.453,3.979,2.449L817,47.854c11.317,0.192,12.477-1.551,13.668-5.732
		l6.699-26.486L840.914,0z"/>
	<linearGradient id="SVGID_2_" gradientUnits="userSpaceOnUse" x1="55.2061" y1="143.0015" x2="86.4065" y2="57.2788">
		<stop  offset="0.2957" style="stop-color:#F15A29"/>
		<stop  offset="0.444" style="stop-color:#F47B20"/>
		<stop  offset="0.7692" style="stop-color:#FCCF09"/>
		<stop  offset="0.8925" style="stop-color:#FFF100"/>
	</linearGradient>
	<path fill="url(#SVGID_2_)" d="M137.802,75.986l-11.291,3.689l-20.021,6.214l-78.793,24.464l-0.003,0.001l-25.101,7.793
		c-1.828,0.564-2.884,1.997-2.523,3.436c0.351,1.427,2.017,2.457,3.979,2.45l109.839-0.192c11.317,0.192,12.477-1.55,13.667-5.73
		l6.701-26.486L137.802,75.986z"/>
</g>
</svg>
